<svg viewBox="0 0 50 50" xmlns="http://www.w3.org/2000/svg">
  <defs></defs>
  <g transform="matrix(0.078191, 0, 0, 0.078191, 4.598811, 5.140705)" style="fill: #ffffff">
    <g>
      <path d="M 506.877 214.663 L 422 140.395 L 422 105.952 C 422 97.668 415.284 90.952 407 90.952 L 366.043 90.952 C 365.52 90.433 286.255 11.631 285.701 11.145 C 267.013 -5.206 239.676 -2.202 225.603 11.795 L 145.957 90.952 L 105 90.952 C 96.716 90.952 90 97.668 90 105.952 L 90 140.395 L 5.123 214.663 C 1.867 217.511 0 221.626 0 225.952 L 0 491.053 C 0 515.853 20.194 511.952 45 511.952 L 467 511.952 C 491.822 511.952 509.59 517.038 509.59 492.258 L 512 225.952 C 512 221.627 510.133 217.512 506.877 214.663 Z M 422 180.258 L 474.221 225.952 L 422 271.645 L 422 180.258 Z M 246.355 33.466 C 251.922 28.846 260.078 28.846 265.645 33.466 L 323.486 90.951 L 188.514 90.951 L 246.355 33.466 Z M 120 120.952 L 392 120.952 L 392 297.896 L 342.195 341.475 L 285.632 291.949 C 268.738 277.168 243.26 277.168 226.362 291.952 L 169.803 341.474 L 120 297.895 L 120 120.952 Z M 90 180.258 L 90 271.645 L 37.779 225.951 L 90 180.258 Z M 30 463.886 L 30 259.008 L 147.034 361.412 L 30 463.886 Z M 54.908 481.952 L 246.122 314.526 C 251.753 309.599 260.247 309.598 265.874 314.523 L 457.092 481.952 L 54.908 481.952 Z M 482 463.886 L 364.966 361.412 L 482 259.008 L 482 463.886 Z"></path>
    </g>
  </g>
  <g transform="matrix(0.078191, 0, 0, 0.078191, 4.598811, 5.140705)" style="">
    <g></g>
  </g>
  <g transform="matrix(0.078191, 0, 0, 0.078191, 4.598811, 5.140705)" style="">
    <g></g>
  </g>
  <g transform="matrix(0.078191, 0, 0, 0.078191, 4.598811, 5.140705)" style=""></g>
  <g transform="matrix(0.078191, 0, 0, 0.078191, 4.598811, 5.140705)" style=""></g>
  <g transform="matrix(0.078191, 0, 0, 0.078191, 4.598811, 5.140705)" style=""></g>
  <g transform="matrix(0.078191, 0, 0, 0.078191, 4.598811, 5.140705)" style=""></g>
  <g transform="matrix(0.078191, 0, 0, 0.078191, 4.598811, 5.140705)" style=""></g>
  <g transform="matrix(0.078191, 0, 0, 0.078191, 4.598811, 5.140705)" style=""></g>
  <g transform="matrix(0.078191, 0, 0, 0.078191, 4.598811, 5.140705)" style=""></g>
  <g transform="matrix(0.078191, 0, 0, 0.078191, 4.598811, 5.140705)" style=""></g>
  <g transform="matrix(0.078191, 0, 0, 0.078191, 4.598811, 5.140705)" style=""></g>
  <g transform="matrix(0.078191, 0, 0, 0.078191, 4.598811, 5.140705)" style=""></g>
  <g transform="matrix(0.078191, 0, 0, 0.078191, 4.598811, 5.140705)" style=""></g>
  <g transform="matrix(0.078191, 0, 0, 0.078191, 4.598811, 5.140705)" style=""></g>
  <g transform="matrix(0.078191, 0, 0, 0.078191, 4.598811, 5.140705)" style=""></g>
  <g transform="matrix(0.078191, 0, 0, 0.078191, 4.598811, 5.140705)" style=""></g>
  <g transform="matrix(0.078191, 0, 0, 0.078191, 4.598811, 5.140705)" style=""></g>
</svg>