<?xml version="1.0" encoding="iso-8859-1"?>
<!-- Generator: Adobe Illustrator 19.0.0, SVG Export Plug-In . SVG Version: 6.00 Build 0)  -->
<svg version="1.1" id="Capa_1" xmlns="http://www.w3.org/2000/svg" xmlns:xlink="http://www.w3.org/1999/xlink" x="0px" y="0px"
	 viewBox="0 0 512 512" style="enable-background:new 0 0 512 512;" xml:space="preserve">
<g>
	<g>
		<path d="M444.709,239.616v227.621H67.877V239.616H32.768v245.175c0,9.696,7.858,17.554,17.554,17.554h411.941
			c9.696,0,17.554-7.858,17.554-17.554V239.616H444.709z"/>
	</g>
</g>
<g>
	<g>
		<path d="M494.446,107.953H17.554C7.858,107.953,0,115.811,0,125.507v114.688c0,9.696,7.858,17.554,17.554,17.554h476.891
			c9.696,0,17.554-7.853,17.554-17.554V125.507C512,115.811,504.142,107.953,494.446,107.953z M476.891,222.647H35.109v-79.579
			h441.783V222.647z"/>
	</g>
</g>
<g>
	<g>
		<path d="M273.273,121.066c-1.194-4.552-30.152-111.411-114.7-111.411c-36.782,0-66.706,29.924-66.706,66.706
			c0,36.782,29.661,66.706,66.121,66.706h98.304c5.436,0,10.574-2.522,13.897-6.829S274.648,126.326,273.273,121.066z
			 M157.989,107.959c-17.39,0-31.013-13.88-31.013-31.598c0-17.127,14.471-31.598,31.598-31.598
			c38.52,0,61.586,37.947,72.675,63.195H157.989z"/>
	</g>
</g>
<g>
	<g>
		<path d="M354.011,9.655c-84.547,0-113.506,106.859-114.7,111.411c-1.381,5.26-0.24,10.866,3.084,15.173
			c3.324,4.307,8.455,6.829,13.897,6.829h98.304c36.46,0,66.121-29.924,66.121-66.706C420.718,39.579,390.794,9.655,354.011,9.655z
			 M354.597,107.959h-73.33c11.007-25.249,34.003-63.195,72.751-63.195c17.127,0,31.598,14.471,31.598,31.598
			C385.615,94.079,371.993,107.959,354.597,107.959z"/>
	</g>
</g>
<g>
	<g>
		<rect x="238.738" y="125.513" width="35.109" height="359.278"/>
	</g>
</g>
<g>
</g>
<g>
</g>
<g>
</g>
<g>
</g>
<g>
</g>
<g>
</g>
<g>
</g>
<g>
</g>
<g>
</g>
<g>
</g>
<g>
</g>
<g>
</g>
<g>
</g>
<g>
</g>
<g>
</g>
</svg>
