<svg viewBox="0 0 50 50" xmlns="http://www.w3.org/2000/svg">
  <defs></defs>
  <path d="M 11.314 48.113 C 10.779 48.113 10.25 47.946 9.797 47.618 C 8.953 47.006 8.559 45.956 8.789 44.944 L 11.927 31.125 L 1.287 21.794 C 0.505 21.112 0.207 20.032 0.528 19.04 C 0.849 18.053 1.724 17.355 2.757 17.259 L 16.833 15.981 L 22.398 2.957 C 22.807 2 23.743 1.383 24.781 1.383 C 25.819 1.383 26.754 2 27.164 2.957 L 32.729 15.981 L 46.803 17.259 C 47.839 17.352 48.713 18.053 49.035 19.04 C 49.356 20.029 49.059 21.112 48.279 21.794 L 37.638 31.122 L 40.777 44.941 C 41.004 45.956 40.611 47.006 39.767 47.616 C 38.927 48.226 37.804 48.272 36.919 47.741 L 24.781 40.487 L 12.644 47.745 C 12.232 47.987 11.775 48.113 11.314 48.113 Z M 32.006 22.911 C 32.467 22.911 35.079 21.741 35.49 21.985 L 37.566 44.581 L 34.605 31.538 C 34.393 30.611 34.708 29.642 35.427 29.012 L 34.797 26.349 L 23.015 28.053 C 22.058 27.968 23.607 28.121 23.234 27.238 L 24.781 5.136 C 24.781 5.136 24.697 28.611 23.744 28.699 L 4.089 20.2 L 23.192 27.393 C 23.913 28.022 15.17 30.606 14.955 31.537 L 11.996 44.58 L 15.259 24.25 C 15.668 24.006 31.544 22.911 32.006 22.911 Z M 16.724 16.233 C 16.724 16.233 16.724 16.236 16.721 16.237 L 16.724 16.233 Z M 32.833 16.227 L 32.837 16.232 C 32.837 16.228 32.837 16.228 32.833 16.227 Z" style="fill: rgb(226, 226, 226);"></path>
</svg>